<svg width="512" height="512" viewBox="0 0 512 512" fill="none" xmlns="http://www.w3.org/2000/svg">
  <rect width="512" height="512" rx="128" fill="#FFF8E1"/>
  <path d="M384 192C384 279.529 312.823 352 224 352C135.177 352 64 279.529 64 192C64 104.471 135.177 32 224 32C312.823 32 384 104.471 384 192Z" fill="#F59E0B"/>
  <path d="M448 416C448 434.778 432.778 450 414 450H34C15.2223 450 0 434.778 0 416C0 397.222 15.2223 382 34 382H414C432.778 382 448 397.222 448 416Z" fill="#F59E0B"/>
  <path d="M352 256C352 273.673 337.673 288 320 288C302.327 288 288 273.673 288 256C288 238.327 302.327 224 320 224C337.673 224 352 238.327 352 256Z" fill="#FFF8E1"/>
  <path d="M224 288C224 305.673 209.673 320 192 320C174.327 320 160 305.673 160 288C160 270.327 174.327 256 192 256C209.673 256 224 270.327 224 288Z" fill="#FFF8E1"/>
  <path d="M160 224C160 241.673 145.673 256 128 256C110.327 256 96 241.673 96 224C96 206.327 110.327 192 128 192C145.673 192 160 206.327 160 224Z" fill="#FFF8E1"/>
  <path d="M288 224C288 241.673 273.673 256 256 256C238.327 256 224 241.673 224 224C224 206.327 238.327 192 256 192C273.673 192 288 206.327 288 224Z" fill="#FFF8E1"/>
  <path d="M224 160C224 177.673 209.673 192 192 192C174.327 192 160 177.673 160 160C160 142.327 174.327 128 192 128C209.673 128 224 142.327 224 160Z" fill="#FFF8E1"/>
</svg>

